<?xml version="1.0" encoding="UTF-8" standalone="no"?>
<!-- Created with Inkscape (http://www.inkscape.org/) -->

<svg
   xmlns:dc="http://purl.org/dc/elements/1.1/"
   xmlns:cc="http://creativecommons.org/ns#"
   xmlns:rdf="http://www.w3.org/1999/02/22-rdf-syntax-ns#"
   xmlns:svg="http://www.w3.org/2000/svg"
   xmlns="http://www.w3.org/2000/svg"
   xmlns:sodipodi="http://sodipodi.sourceforge.net/DTD/sodipodi-0.dtd"
   xmlns:inkscape="http://www.inkscape.org/namespaces/inkscape"
   id="svg3242"
   version="1.1"
   inkscape:version="0.48.0 r9654"
   width="300"
   height="300"
   sodipodi:docname="bart-q-b.svg">
  <metadata
     id="metadata3248">
    <rdf:RDF>
      <cc:Work
         rdf:about="">
        <dc:format>image/svg+xml</dc:format>
        <dc:type
           rdf:resource="http://purl.org/dc/dcmitype/StillImage" />
      </cc:Work>
    </rdf:RDF>
  </metadata>
  <defs
     id="defs3246" />
  <sodipodi:namedview
     pagecolor="#ffffff"
     bordercolor="#666666"
     borderopacity="1"
     objecttolerance="10"
     gridtolerance="10"
     guidetolerance="10"
     inkscape:pageopacity="0"
     inkscape:pageshadow="2"
     inkscape:window-width="1214"
     inkscape:window-height="731"
     id="namedview3244"
     showgrid="false"
     inkscape:zoom="0.70710678"
     inkscape:cx="228.69811"
     inkscape:cy="136.49887"
     inkscape:window-x="13"
     inkscape:window-y="63"
     inkscape:window-maximized="0"
     inkscape:current-layer="svg3242"
     showguides="true"
     inkscape:guide-bbox="true" />
  <g
     inkscape:groupmode="layer"
     id="layer1"
     inkscape:label="Vectorsz"
     transform="translate(0,89)" />
  <path
     d="m 258.3259,180.97905 c 3.52432,-45.86774 -74.35976,-53.74675 -72,0 0.35518,43.52679 73.97839,41.68627 72,0 z m -131,59 -0.5,-175.500004 50.5,0 0,60.500004 c 163.59465,-55.640474 162.30603,168.33665 -0.18874,104.5 l 0,10.5 z"
     style="fill:#000000;fill-opacity:1;stroke:none"
     id="path5262"
     inkscape:connector-curvature="0"
     sodipodi:nodetypes="cccccccccc" />
  <path
     id="path4025"
     style="fill:#0188c0;fill-opacity:0.74509804;stroke:none"
     d="m 46.637162,122.84315 c -3.524323,45.86774 74.359758,53.74675 71.999998,0 -0.35518,-43.526794 -73.978387,-41.686274 -71.999998,0 z m 130.999998,-59.000004 0.5,175.500004 -50.5,0 0,-60.5 c -163.594648,55.64047 -162.994768,-168.836654 -0.5,-105.000004 l 0,-9 z"
     inkscape:connector-curvature="0"
     sodipodi:nodetypes="cccccccccc" />
</svg>
